<svg width="10" height="12" viewBox="0 0 10 12" fill="none" xmlns="http://www.w3.org/2000/svg">
<path d="M0.637369 4.81547L4.57487 0.877968C4.6155 0.837291 4.66375 0.805022 4.71687 0.783005C4.76998 0.760988 4.82691 0.749656 4.8844 0.749656C4.9419 0.749656 4.99883 0.760988 5.05194 0.783005C5.10505 0.805022 5.1533 0.837291 5.19393 0.877968L9.13143 4.81547C9.21352 4.89756 9.25964 5.0089 9.25964 5.125C9.25964 5.2411 9.21352 5.35244 9.13143 5.43453C9.04934 5.51662 8.938 5.56274 8.8219 5.56274C8.7058 5.56274 8.59446 5.51662 8.51237 5.43453L5.3219 2.24352L5.3219 10.8125C5.3219 10.9285 5.27581 11.0398 5.19376 11.1219C5.11171 11.2039 5.00043 11.25 4.8844 11.25C4.76837 11.25 4.65709 11.2039 4.57504 11.1219C4.49299 11.0398 4.4469 10.9285 4.4469 10.8125L4.4469 2.24352L1.25643 5.43453C1.17434 5.51662 1.063 5.56274 0.9469 5.56274C0.830803 5.56274 0.719462 5.51662 0.637369 5.43453C0.555276 5.35244 0.509157 5.2411 0.509157 5.125C0.509157 5.0089 0.555276 4.89756 0.637369 4.81547Z" fill="#1D874F"/>
</svg>
