<svg width="284" height="88" viewBox="0 0 284 88" fill="none" xmlns="http://www.w3.org/2000/svg">
<path d="M0.507416 87L26.4119 63.6231C27.2045 62.9078 28.2502 62.5391 29.3162 62.599L59.7196 64.3081C60.7446 64.3657 61.7524 64.0271 62.5346 63.3622L89.9951 40.0222C91.4454 38.7895 93.5636 38.7496 95.0593 39.9267L122.555 61.5653C124.459 63.0639 127.248 62.5387 128.476 60.4502L154.168 16.776C155.645 14.2652 159.225 14.1248 160.894 16.5121L187.548 54.633C188.776 56.3891 191.17 56.8657 192.977 55.7139L219.771 38.6335C220.514 38.1599 221.392 37.9449 222.27 38.0217L251.177 40.5529C252.523 40.6708 253.839 40.1005 254.673 39.0368L284.507 1" stroke="#1D874F"/>
</svg>
