<svg width="17" height="18" viewBox="0 0 17 18" fill="none" xmlns="http://www.w3.org/2000/svg">
<path d="M9.44495 13.0625C9.44495 13.2479 9.38997 13.4292 9.28695 13.5833C9.18394 13.7375 9.03752 13.8577 8.86621 13.9286C8.69491 13.9996 8.50641 14.0182 8.32455 13.982C8.1427 13.9458 7.97565 13.8565 7.84454 13.7254C7.71343 13.5943 7.62414 13.4273 7.58796 13.2454C7.55179 13.0635 7.57036 12.875 7.64131 12.7037C7.71227 12.5324 7.83243 12.386 7.9866 12.283C8.14077 12.18 8.32203 12.125 8.50745 12.125C8.75609 12.125 8.99455 12.2238 9.17036 12.3996C9.34618 12.5754 9.44495 12.8139 9.44495 13.0625ZM8.50745 4.625C6.78401 4.625 5.38245 5.88672 5.38245 7.4375V7.75C5.38245 7.91576 5.4483 8.07473 5.56551 8.19194C5.68272 8.30915 5.84169 8.375 6.00745 8.375C6.17321 8.375 6.33218 8.30915 6.44939 8.19194C6.5666 8.07473 6.63245 7.91576 6.63245 7.75V7.4375C6.63245 6.57812 7.47386 5.875 8.50745 5.875C9.54104 5.875 10.3825 6.57812 10.3825 7.4375C10.3825 8.29688 9.54104 9 8.50745 9C8.34169 9 8.18272 9.06585 8.06551 9.18306C7.9483 9.30027 7.88245 9.45924 7.88245 9.625V10.25C7.88245 10.4158 7.9483 10.5747 8.06551 10.6919C8.18272 10.8092 8.34169 10.875 8.50745 10.875C8.67321 10.875 8.83218 10.8092 8.94939 10.6919C9.0666 10.5747 9.13245 10.4158 9.13245 10.25V10.1938C10.5575 9.93203 11.6325 8.79531 11.6325 7.4375C11.6325 5.88672 10.2309 4.625 8.50745 4.625ZM16.6325 9C16.6325 10.607 16.1559 12.1779 15.2631 13.514C14.3704 14.8502 13.1014 15.8916 11.6168 16.5065C10.1321 17.1215 8.49844 17.2824 6.92234 16.9689C5.34625 16.6554 3.89851 15.8815 2.76221 14.7452C1.62591 13.6089 0.852075 12.1612 0.53857 10.5851C0.225065 9.00901 0.385967 7.37535 1.00093 5.8907C1.61589 4.40605 2.65729 3.1371 3.99344 2.24431C5.32959 1.35152 6.90048 0.875 8.50745 0.875C10.6616 0.877275 12.7269 1.73403 14.2502 3.25727C15.7734 4.78051 16.6302 6.84581 16.6325 9ZM15.3825 9C15.3825 7.64025 14.9792 6.31104 14.2238 5.18045C13.4684 4.04987 12.3946 3.16868 11.1384 2.64833C9.88216 2.12798 8.49982 1.99183 7.1662 2.2571C5.83258 2.52237 4.60758 3.17716 3.64609 4.13864C2.6846 5.10013 2.02982 6.32513 1.76455 7.65875C1.49928 8.99237 1.63543 10.3747 2.15578 11.6309C2.67613 12.8872 3.55732 13.9609 4.6879 14.7164C5.81849 15.4718 7.1477 15.875 8.50745 15.875C10.3302 15.8729 12.0777 15.1479 13.3665 13.8591C14.6554 12.5702 15.3804 10.8227 15.3825 9Z" fill="#7E8986"/>
</svg>
