<svg width="284" height="88" viewBox="0 0 284 88" fill="none" xmlns="http://www.w3.org/2000/svg">
<path d="M25.9873 62.6537L0.388537 86.2649C-0.280742 86.8822 0.156034 88 1.06653 88H280.507C282.717 88 284.507 86.2091 284.507 84V0L254.622 38.0397C253.788 39.1018 252.474 39.671 251.128 39.5534L222.165 37.0214C221.288 36.9448 220.411 37.1592 219.669 37.6316L192.819 54.7194C191.013 55.8686 188.623 55.3927 187.395 53.6394L160.685 15.5011C159.016 13.1171 155.44 13.2575 153.963 15.7651L128.218 59.4578C126.989 61.5434 124.204 62.068 122.3 60.5725L94.7441 38.9214C93.2493 37.7469 91.1343 37.7868 89.6848 39.0168L62.1705 62.3646C61.3887 63.028 60.382 63.3658 59.3583 63.3084L28.9234 61.6003C27.8425 61.5396 26.7831 61.9197 25.9873 62.6537Z" fill="url(#paint0_linear_21_10189)" fill-opacity="0.15"/>
<defs>
<linearGradient id="paint0_linear_21_10189" x1="141.124" y1="-18.5769" x2="141.308" y2="103.5" gradientUnits="userSpaceOnUse">
<stop stop-color="#2EB76F"/>
<stop offset="1" stop-color="#2EB76F" stop-opacity="0"/>
</linearGradient>
</defs>
</svg>
